<svg width="148" height="72" viewBox="0 0 148 72" fill="none" xmlns="http://www.w3.org/2000/svg">
<g clip-path="url(#clip0_148_924)">
<path d="M103.553 69.1698C103.14 68.7451 102.938 68.1652 102.954 67.5812L103.8 34.5135C102.772 33.2066 103.011 34.8197 100.641 36.2818C98.2702 37.7439 94.7267 35.7223 96.6926 33.129C98.6585 30.5357 101.191 31.1319 104.374 29.3636C106.631 28.1098 104.678 26.2435 103.351 25.2674C102.691 24.7814 102.295 24.0259 102.303 23.2173C102.364 17.8877 106.304 15.1678 108.039 14.2244C108.403 14.0284 108.848 14.2816 108.848 14.6859V26.6478C108.848 26.9581 109.119 27.1991 109.435 27.1746C110.575 27.0807 113.261 26.7499 116.347 25.5941C120.453 24.0585 120.53 28.5141 117.375 29.286C114.216 30.0538 108.848 31.0543 108.375 32.5899C107.901 34.1255 106.777 66.3437 106.72 68.0386C106.72 68.0876 106.736 67.9896 106.72 68.0386C106.554 68.5123 105.527 71.2036 103.549 69.1698H103.553Z" fill="#BF3027"/>
<path d="M130.517 29.9394C130.821 29.9149 131.116 29.8251 131.419 29.8087C132.738 29.7271 137.034 29.2574 137.9 26.5988C138.927 23.4459 132.103 24.6221 131.031 25.2919C129.959 25.9617 128.353 26.1495 127.382 26.1577C126.962 26.1577 126.626 25.8187 126.65 25.4103C126.735 23.9197 126.958 20.5545 127.322 19.3743C127.795 17.8387 127.718 13.5301 126.966 12.9951C126.213 12.4601 121.339 16.005 120.219 20.8363C120.219 20.8363 119.664 23.499 121.562 24.6262C123.459 25.7534 122.508 28.1384 120.773 28.8327C119.037 29.5229 115.138 30.8297 114.6 32.2918C114.062 33.7538 114.458 37.2129 118.957 34.9055C118.957 34.9055 120.255 33.8845 121.016 33.4435C122.35 32.6757 121.796 34.9055 121.796 34.9055L120.651 65.9966C120.619 66.8624 120.882 67.7241 121.448 68.3939C123.293 70.5747 124.324 66.2702 124.324 66.2702L126.161 32.1815C126.197 31.4913 126.634 30.8828 127.293 30.6214C127.953 30.3601 129.013 30.066 130.517 29.9476V29.9394Z" fill="#BF3027"/>
<path d="M91.6888 9.61362C92.4898 9.2379 93.0682 8.48645 93.1167 7.62474C93.1653 6.76303 92.6273 5.9299 90.0385 6.70585C85.2572 8.13932 78.3928 14.7063 75.5734 20.1951C72.754 25.688 73.47 31.7486 76.9204 34.1622C81.2162 37.168 88.647 37.5192 94.7307 35.1138C95.1959 34.93 95.5438 34.5339 95.6328 34.052C95.8148 33.0759 96.4094 31.3647 98.3753 30.699C100.778 29.8863 103.003 28.8123 103.61 28.51C103.719 28.457 103.808 28.3753 103.873 28.2732C104.22 27.73 105.203 25.9984 102.914 27.1133C100.216 28.4284 94.7024 32.3653 91.5149 33.2025C91.5149 33.2025 84.2298 36.1756 79.8005 32.7043C75.3711 29.2329 76.7222 23.3806 79.1411 19.9787C81.4266 16.7687 86.5435 12.0109 91.6929 9.60954L91.6888 9.61362Z" fill="#212120"/>
<path d="M2.86377 4.05131C2.86377 4.05131 1.35497 30.9319 0.274947 35.1342C-0.80508 39.3366 1.56936 38.9854 2.43095 38.3565C3.29255 37.7275 4.01257 24.2138 4.01257 24.2138L5.01978 16.0214C5.01978 16.0214 5.37979 12.5214 6.16857 15.8825C6.95736 19.2436 10.2662 34.1541 11.775 37.0945C13.2838 40.035 14.1454 36.8127 14.291 35.8326C14.4366 34.8524 16.5198 25.9617 17.167 24.422C17.8142 22.8824 23.7079 10.4223 24.8607 9.22976C26.0135 8.03725 24.7879 6.28932 30.4671 30.7236C30.4671 30.7236 30.8069 31.1851 31.353 37.6091C31.3975 38.1237 31.6362 38.6056 32.0285 38.9486C32.6555 39.4877 33.6182 39.7695 34.2614 37.3722C34.3018 37.2211 34.492 37.1599 34.6133 37.2579C35.394 37.8664 37.8413 39.2835 41.2472 36.6943C45.4176 33.5252 49.8712 28.6939 52.3185 25.4022C52.3185 25.4022 54.1873 22.8824 51.9584 31.4914C49.7296 40.1044 53.6816 39.892 54.9073 38.1441C56.1289 36.3921 55.4817 32.9616 55.4817 32.9616C55.4817 32.9616 56.5617 39.8226 65.2585 38.8425C73.9554 37.8623 73.381 34.2235 73.3082 32.7533C73.2354 31.2831 73.4538 29.1839 66.0473 25.4022C66.0473 25.4022 57.9977 23.3725 63.0985 19.5907C68.2033 15.809 68.7777 17.9817 69.5665 19.0312C70.3553 20.0808 72.4425 20.0114 71.8681 17.6304C71.2937 15.2495 69.8537 12.1008 66.6217 13.7793C63.3857 15.4578 58.7865 18.2594 58.3537 20.8486C57.9208 23.4378 59.0737 25.3981 61.8769 26.7295C64.6801 28.0608 74.9586 32.1897 66.7633 35.4814C66.7633 35.4814 57.4921 36.8822 59.1424 30.2294C59.1424 30.2294 59.7168 28.1997 57.6336 27.9873C55.5504 27.775 55.2632 30.9278 55.2632 30.9278C55.2632 30.9278 54.5432 25.2552 56.4848 22.1064C57.9775 19.6847 57.4718 16.7279 57.1604 15.4864C57.0714 15.1311 56.7599 14.8779 56.3837 14.8452L55.3361 14.7635C55.2592 14.7594 55.1904 14.8166 55.1904 14.8942C55.1904 15.3475 54.7859 15.6987 54.3248 15.6456C51.2951 15.2903 41.5142 15.0616 37.3639 20.7057C34.1441 25.0796 33.6425 27.9669 33.3796 29.1635C33.3472 29.3024 33.145 29.3024 33.1166 29.1635C32.2591 24.5936 27.8298 1.57236 26.0823 0.0572134C26.0823 0.0572134 25.2935 -0.641142 24.4279 2.78937C23.5663 6.21989 19.4687 13.1504 19.4687 13.1504C19.4687 13.1504 13.5346 25.1939 13.0128 28.604C13.0128 28.6244 12.9804 28.6285 12.9723 28.604C12.6204 27.5095 8.92325 15.9928 7.89581 12.7256C6.81578 9.2951 6.6742 5.02329 6.6742 5.02329C6.6742 5.02329 5.7398 0.820912 4.59101 0.404349C3.44221 -0.0122137 2.57658 3.07117 2.86377 4.05131Z" fill="#1B1718"/>
<path d="M52.4885 18.537C52.4885 18.537 47.6749 28.1588 41.7732 32.7247C35.8715 37.2905 36.2881 33.5415 36.2881 33.5415C36.2881 33.5415 35.3658 27.1828 39.2612 22.6945C43.1525 18.2103 51.6107 17.7203 52.4885 18.537V18.537Z" fill="white"/>
<path d="M109.406 23.6828V20.967C109.406 20.6852 109.479 20.4116 109.621 20.1665C110.535 18.5411 113.763 11.8598 106.643 9.30323C98.5129 6.38321 99.5403 4.84356 100.406 3.61429C101.272 2.38503 104.374 3.92059 104.374 3.92059C104.374 3.92059 109.01 7.15099 111.141 8.30266C113.273 9.45434 116.352 14.2203 113.35 20.142C113.35 20.142 111.465 22.7721 109.936 23.9401C109.718 24.1075 109.402 23.9524 109.402 23.6828H109.406Z" fill="#212120"/>
<path d="M103.553 68.5572C103.141 68.1325 102.938 67.5526 102.954 66.9686L103.8 33.9009C102.772 32.594 103.011 34.2072 100.641 35.6692C98.2743 37.1313 94.7268 35.1097 96.6927 32.5164C98.6586 29.9231 101.191 30.5193 104.374 28.751C106.631 27.4972 104.678 25.6309 103.351 24.6548C102.692 24.1688 102.295 23.4133 102.303 22.6047C102.364 17.2751 106.304 14.5552 108.039 13.6118C108.403 13.4158 108.848 13.669 108.848 14.0733V26.0352C108.848 26.3456 109.119 26.5865 109.435 26.562C110.575 26.4681 113.261 26.1373 116.348 24.9815C120.453 23.4459 120.53 27.9015 117.375 28.6734C114.216 29.4412 108.848 30.4418 108.375 31.9773C107.914 33.4761 106.777 65.7311 106.72 67.426C106.72 67.475 106.737 67.377 106.72 67.426C106.555 67.8997 105.527 70.591 103.549 68.5572H103.553Z" fill="#BF3027"/>
<path d="M130.517 29.3268C130.821 29.3023 131.116 29.2125 131.419 29.1961C132.738 29.1145 137.034 28.6448 137.9 25.9862C138.927 22.8334 132.103 24.0095 131.031 24.6793C129.971 25.3409 128.353 25.5369 127.382 25.5451C126.962 25.5451 126.626 25.2061 126.65 24.7977C126.735 23.3071 126.958 19.9419 127.322 18.7617C127.795 17.2261 127.718 12.9175 126.966 12.3825C126.213 11.8475 121.339 15.3924 120.219 20.2237C120.219 20.2237 119.664 22.8864 121.562 24.0136C123.459 25.1408 122.508 27.5258 120.773 28.2201C119.037 28.9103 115.138 30.2171 114.6 31.6792C114.062 33.1412 114.458 36.6003 118.957 34.2929C118.957 34.2929 120.255 33.2719 121.016 32.8309C122.35 32.0631 121.796 34.2929 121.796 34.2929L120.651 65.384C120.619 66.2498 120.882 67.1115 121.448 67.7813C123.293 69.9621 124.324 65.6576 124.324 65.6576L126.161 31.5689C126.197 30.8787 126.634 30.2702 127.293 30.0089C127.953 29.7475 129.013 29.4534 130.517 29.335V29.3268Z" fill="#BF3027"/>
<path d="M139.776 45.2542V61.394C139.776 61.394 138.818 73.7316 146.993 71.7958C146.993 71.7958 149.569 70.5584 146.479 69.3128C143.389 68.0672 143.874 63.9791 143.874 63.9791L143.461 46.8388C143.461 46.8388 143.757 42.6773 141.694 42.8937C139.631 43.1102 139.78 45.2624 139.78 45.2624L139.776 45.2542Z" fill="#BF312B"/>
<path d="M144.052 38.5566C144.626 38.3605 144.816 37.6336 144.4 37.2007C144.011 36.7964 143.749 36.1879 145.371 36.0041C147.874 35.7182 145.371 33.6354 143.012 33.2801C140.654 32.9207 135.942 32.7043 137.564 35.8611C138.789 38.2503 142.422 39.1201 144.052 38.5606V38.5566Z" fill="#BB3427"/>
<path d="M9.67275 54.1188H12.4648V54.9988H9.67275V54.1188ZM9.76075 57.1428H8.72075V51.5428H12.8088V52.4148H9.76075V57.1428ZM16.2099 57.1428V56.2788L16.1539 56.0948V54.5828C16.1539 54.2895 16.0659 54.0628 15.8899 53.9028C15.7139 53.7375 15.4472 53.6548 15.0899 53.6548C14.8499 53.6548 14.6125 53.6922 14.3779 53.7668C14.1485 53.8415 13.9539 53.9455 13.7939 54.0788L13.4019 53.3508C13.6312 53.1748 13.9032 53.0442 14.2179 52.9588C14.5379 52.8682 14.8685 52.8228 15.2099 52.8228C15.8285 52.8228 16.3059 52.9722 16.6419 53.2708C16.9832 53.5642 17.1539 54.0202 17.1539 54.6388V57.1428H16.2099ZM14.8659 57.1988C14.5459 57.1988 14.2659 57.1455 14.0259 57.0388C13.7859 56.9268 13.5992 56.7748 13.4659 56.5828C13.3379 56.3855 13.2739 56.1642 13.2739 55.9188C13.2739 55.6788 13.3299 55.4628 13.4419 55.2708C13.5592 55.0788 13.7485 54.9268 14.0099 54.8148C14.2712 54.7028 14.6179 54.6468 15.0499 54.6468H16.2899V55.3108H15.1219C14.7805 55.3108 14.5512 55.3668 14.4339 55.4788C14.3165 55.5855 14.2579 55.7188 14.2579 55.8788C14.2579 56.0602 14.3299 56.2042 14.4739 56.3108C14.6179 56.4175 14.8179 56.4708 15.0739 56.4708C15.3192 56.4708 15.5379 56.4148 15.7299 56.3028C15.9272 56.1908 16.0685 56.0255 16.1539 55.8068L16.3219 56.4068C16.2259 56.6575 16.0525 56.8522 15.8019 56.9908C15.5565 57.1295 15.2445 57.1988 14.8659 57.1988ZM19.7573 57.1988C19.3999 57.1988 19.0559 57.1535 18.7253 57.0628C18.3999 56.9668 18.1413 56.8522 17.9493 56.7188L18.3333 55.9588C18.5253 56.0815 18.7546 56.1828 19.0213 56.2628C19.2879 56.3428 19.5546 56.3828 19.8213 56.3828C20.1359 56.3828 20.3626 56.3402 20.5013 56.2548C20.6453 56.1695 20.7173 56.0548 20.7173 55.9108C20.7173 55.7935 20.6693 55.7055 20.5733 55.6468C20.4773 55.5828 20.3519 55.5348 20.1973 55.5028C20.0426 55.4708 19.8693 55.4415 19.6773 55.4148C19.4906 55.3882 19.3013 55.3535 19.1093 55.3108C18.9226 55.2628 18.7519 55.1962 18.5973 55.1108C18.4426 55.0202 18.3173 54.9002 18.2213 54.7508C18.1253 54.6015 18.0773 54.4042 18.0773 54.1588C18.0773 53.8868 18.1546 53.6522 18.3092 53.4548C18.4639 53.2522 18.6799 53.0975 18.9572 52.9908C19.2399 52.8788 19.5733 52.8228 19.9573 52.8228C20.2453 52.8228 20.5359 52.8548 20.8293 52.9188C21.1226 52.9828 21.3653 53.0735 21.5573 53.1908L21.1733 53.9508C20.9706 53.8282 20.7653 53.7455 20.5573 53.7028C20.3546 53.6548 20.1519 53.6308 19.9493 53.6308C19.6453 53.6308 19.4186 53.6762 19.2693 53.7668C19.1253 53.8575 19.0533 53.9722 19.0533 54.1108C19.0533 54.2388 19.1013 54.3348 19.1973 54.3988C19.2933 54.4628 19.4186 54.5135 19.5733 54.5508C19.7279 54.5882 19.8986 54.6202 20.0853 54.6468C20.2773 54.6682 20.4666 54.7028 20.6533 54.7508C20.8399 54.7988 21.0106 54.8655 21.1653 54.9508C21.3253 55.0308 21.4533 55.1455 21.5493 55.2948C21.6453 55.4442 21.6933 55.6388 21.6933 55.8788C21.6933 56.1455 21.6133 56.3775 21.4533 56.5748C21.2986 56.7722 21.0773 56.9268 20.7893 57.0388C20.5013 57.1455 20.1573 57.1988 19.7573 57.1988ZM24.9784 52.8228C25.3198 52.8228 25.6238 52.8895 25.8904 53.0228C26.1624 53.1562 26.3758 53.3615 26.5304 53.6388C26.6851 53.9108 26.7624 54.2628 26.7624 54.6948V57.1428H25.7624V54.8228C25.7624 54.4442 25.6718 54.1615 25.4904 53.9748C25.3144 53.7882 25.0664 53.6948 24.7464 53.6948C24.5118 53.6948 24.3038 53.7428 24.1224 53.8388C23.9411 53.9348 23.7998 54.0788 23.6984 54.2708C23.6024 54.4575 23.5544 54.6948 23.5544 54.9828V57.1428H22.5544V51.2068H23.5544V54.0228L23.3384 53.6708C23.4878 53.3988 23.7038 53.1908 23.9864 53.0468C24.2744 52.8975 24.6051 52.8228 24.9784 52.8228ZM28.031 57.1428V52.8708H29.031V57.1428H28.031ZM28.535 52.1668C28.3483 52.1668 28.1937 52.1082 28.071 51.9908C27.9537 51.8735 27.895 51.7322 27.895 51.5668C27.895 51.3962 27.9537 51.2548 28.071 51.1428C28.1937 51.0255 28.3483 50.9668 28.535 50.9668C28.7217 50.9668 28.8737 51.0228 28.991 51.1348C29.1137 51.2415 29.175 51.3775 29.175 51.5428C29.175 51.7188 29.1163 51.8682 28.999 51.9908C28.8817 52.1082 28.727 52.1668 28.535 52.1668ZM32.2635 57.1988C31.8262 57.1988 31.4368 57.1055 31.0955 56.9188C30.7542 56.7268 30.4848 56.4655 30.2875 56.1348C30.0902 55.8042 29.9915 55.4282 29.9915 55.0068C29.9915 54.5802 30.0902 54.2042 30.2875 53.8788C30.4848 53.5482 30.7542 53.2895 31.0955 53.1028C31.4368 52.9162 31.8262 52.8228 32.2635 52.8228C32.7062 52.8228 33.0982 52.9162 33.4395 53.1028C33.7862 53.2895 34.0555 53.5455 34.2475 53.8708C34.4448 54.1962 34.5435 54.5748 34.5435 55.0068C34.5435 55.4282 34.4448 55.8042 34.2475 56.1348C34.0555 56.4655 33.7862 56.7268 33.4395 56.9188C33.0982 57.1055 32.7062 57.1988 32.2635 57.1988ZM32.2635 56.3428C32.5088 56.3428 32.7275 56.2895 32.9195 56.1828C33.1115 56.0762 33.2608 55.9215 33.3675 55.7188C33.4795 55.5162 33.5355 55.2788 33.5355 55.0068C33.5355 54.7295 33.4795 54.4922 33.3675 54.2948C33.2608 54.0922 33.1115 53.9375 32.9195 53.8308C32.7275 53.7242 32.5115 53.6708 32.2715 53.6708C32.0262 53.6708 31.8075 53.7242 31.6155 53.8308C31.4288 53.9375 31.2795 54.0922 31.1675 54.2948C31.0555 54.4922 30.9995 54.7295 30.9995 55.0068C30.9995 55.2788 31.0555 55.5162 31.1675 55.7188C31.2795 55.9215 31.4288 56.0762 31.6155 56.1828C31.8075 56.2895 32.0235 56.3428 32.2635 56.3428ZM37.9238 52.8228C38.2651 52.8228 38.5691 52.8895 38.8358 53.0228C39.1078 53.1562 39.3211 53.3615 39.4758 53.6388C39.6304 53.9108 39.7078 54.2628 39.7078 54.6948V57.1428H38.7078V54.8228C38.7078 54.4442 38.6171 54.1615 38.4358 53.9748C38.2598 53.7882 38.0118 53.6948 37.6918 53.6948C37.4571 53.6948 37.2491 53.7428 37.0678 53.8388C36.8864 53.9348 36.7451 54.0788 36.6438 54.2708C36.5478 54.4575 36.4998 54.6948 36.4998 54.9828V57.1428H35.4998V52.8708H36.4518V54.0228L36.2838 53.6708C36.4331 53.3988 36.6491 53.1908 36.9318 53.0468C37.2198 52.8975 37.5504 52.8228 37.9238 52.8228ZM44.2353 54.1188H47.0273V54.9988H44.2353V54.1188ZM44.3233 57.1428H43.2833V51.5428H47.3713V52.4148H44.3233V57.1428ZM50.0838 57.1988C49.6465 57.1988 49.2571 57.1055 48.9158 56.9188C48.5745 56.7268 48.3051 56.4655 48.1078 56.1348C47.9105 55.8042 47.8118 55.4282 47.8118 55.0068C47.8118 54.5802 47.9105 54.2042 48.1078 53.8788C48.3051 53.5482 48.5745 53.2895 48.9158 53.1028C49.2571 52.9162 49.6465 52.8228 50.0838 52.8228C50.5265 52.8228 50.9185 52.9162 51.2598 53.1028C51.6065 53.2895 51.8758 53.5455 52.0678 53.8708C52.2651 54.1962 52.3638 54.5748 52.3638 55.0068C52.3638 55.4282 52.2651 55.8042 52.0678 56.1348C51.8758 56.4655 51.6065 56.7268 51.2598 56.9188C50.9185 57.1055 50.5265 57.1988 50.0838 57.1988ZM50.0838 56.3428C50.3291 56.3428 50.5478 56.2895 50.7398 56.1828C50.9318 56.0762 51.0811 55.9215 51.1878 55.7188C51.2998 55.5162 51.3558 55.2788 51.3558 55.0068C51.3558 54.7295 51.2998 54.4922 51.1878 54.2948C51.0811 54.0922 50.9318 53.9375 50.7398 53.8308C50.5478 53.7242 50.3318 53.6708 50.0918 53.6708C49.8465 53.6708 49.6278 53.7242 49.4358 53.8308C49.2491 53.9375 49.0998 54.0922 48.9878 54.2948C48.8758 54.4922 48.8198 54.7295 48.8198 55.0068C48.8198 55.2788 48.8758 55.5162 48.9878 55.7188C49.0998 55.9215 49.2491 56.0762 49.4358 56.1828C49.6278 56.2895 49.8438 56.3428 50.0838 56.3428ZM53.3201 57.1428V52.8708H54.2721V54.0468L54.1601 53.7028C54.2881 53.4148 54.4881 53.1962 54.7601 53.0468C55.0374 52.8975 55.3814 52.8228 55.7921 52.8228V53.7748C55.7494 53.7642 55.7094 53.7588 55.6721 53.7588C55.6347 53.7535 55.5974 53.7508 55.5601 53.7508C55.1814 53.7508 54.8801 53.8628 54.6561 54.0868C54.4321 54.3055 54.3201 54.6335 54.3201 55.0708V57.1428H53.3201ZM60.3064 57.1428L58.4504 51.5428H59.5304L61.1864 56.6068H60.6504L62.3704 51.5428H63.3304L65.0024 56.6068H64.4824L66.1784 51.5428H67.1704L65.3144 57.1428H64.2104L62.6824 52.5748H62.9704L61.4184 57.1428H60.3064ZM69.5213 57.1988C69.084 57.1988 68.6946 57.1055 68.3533 56.9188C68.012 56.7268 67.7426 56.4655 67.5453 56.1348C67.348 55.8042 67.2493 55.4282 67.2493 55.0068C67.2493 54.5802 67.348 54.2042 67.5453 53.8788C67.7426 53.5482 68.012 53.2895 68.3533 53.1028C68.6946 52.9162 69.084 52.8228 69.5213 52.8228C69.964 52.8228 70.356 52.9162 70.6973 53.1028C71.044 53.2895 71.3133 53.5455 71.5053 53.8708C71.7026 54.1962 71.8013 54.5748 71.8013 55.0068C71.8013 55.4282 71.7026 55.8042 71.5053 56.1348C71.3133 56.4655 71.044 56.7268 70.6973 56.9188C70.356 57.1055 69.964 57.1988 69.5213 57.1988ZM69.5213 56.3428C69.7666 56.3428 69.9853 56.2895 70.1773 56.1828C70.3693 56.0762 70.5186 55.9215 70.6253 55.7188C70.7373 55.5162 70.7933 55.2788 70.7933 55.0068C70.7933 54.7295 70.7373 54.4922 70.6253 54.2948C70.5186 54.0922 70.3693 53.9375 70.1773 53.8308C69.9853 53.7242 69.7693 53.6708 69.5293 53.6708C69.284 53.6708 69.0653 53.7242 68.8733 53.8308C68.6866 53.9375 68.5373 54.0922 68.4253 54.2948C68.3133 54.4922 68.2573 54.7295 68.2573 55.0068C68.2573 55.2788 68.3133 55.5162 68.4253 55.7188C68.5373 55.9215 68.6866 56.0762 68.8733 56.1828C69.0653 56.2895 69.2813 56.3428 69.5213 56.3428ZM78.1496 52.8228C78.4909 52.8228 78.7922 52.8895 79.0536 53.0228C79.3202 53.1562 79.5282 53.3615 79.6776 53.6388C79.8269 53.9108 79.9016 54.2628 79.9016 54.6948V57.1428H78.9016V54.8228C78.9016 54.4442 78.8189 54.1615 78.6536 53.9748C78.4882 53.7882 78.2509 53.6948 77.9416 53.6948C77.7229 53.6948 77.5282 53.7428 77.3576 53.8388C77.1922 53.9348 77.0616 54.0762 76.9656 54.2628C76.8749 54.4495 76.8296 54.6868 76.8296 54.9748V57.1428H75.8296V54.8228C75.8296 54.4442 75.7469 54.1615 75.5816 53.9748C75.4162 53.7882 75.1789 53.6948 74.8696 53.6948C74.6509 53.6948 74.4562 53.7428 74.2856 53.8388C74.1202 53.9348 73.9896 54.0762 73.8936 54.2628C73.8029 54.4495 73.7576 54.6868 73.7576 54.9748V57.1428H72.7576V52.8708H73.7096V54.0068L73.5416 53.6708C73.6856 53.3935 73.8936 53.1828 74.1656 53.0388C74.4429 52.8948 74.7576 52.8228 75.1096 52.8228C75.5096 52.8228 75.8562 52.9215 76.1496 53.1188C76.4482 53.3162 76.6456 53.6148 76.7416 54.0148L76.3496 53.8788C76.4882 53.5588 76.7176 53.3028 77.0376 53.1108C77.3576 52.9188 77.7282 52.8228 78.1496 52.8228ZM83.1953 57.1988C82.7206 57.1988 82.3046 57.1055 81.9473 56.9188C81.5953 56.7268 81.3206 56.4655 81.1233 56.1348C80.9313 55.8042 80.8353 55.4282 80.8353 55.0068C80.8353 54.5802 80.9286 54.2042 81.1153 53.8788C81.3073 53.5482 81.5686 53.2895 81.8993 53.1028C82.2353 52.9162 82.6166 52.8228 83.0433 52.8228C83.4593 52.8228 83.8299 52.9135 84.1553 53.0948C84.4806 53.2762 84.7366 53.5322 84.9233 53.8628C85.1099 54.1935 85.2033 54.5828 85.2033 55.0308C85.2033 55.0735 85.2006 55.1215 85.1953 55.1748C85.1953 55.2282 85.1926 55.2788 85.1873 55.3268H81.6273V54.6628H84.6593L84.2673 54.8708C84.2726 54.6255 84.2219 54.4095 84.1153 54.2228C84.0086 54.0362 83.8619 53.8895 83.6753 53.7828C83.4939 53.6762 83.2833 53.6228 83.0433 53.6228C82.7979 53.6228 82.5819 53.6762 82.3953 53.7828C82.2139 53.8895 82.0699 54.0388 81.9633 54.2308C81.8619 54.4175 81.8113 54.6388 81.8113 54.8948V55.0548C81.8113 55.3108 81.8699 55.5375 81.9873 55.7348C82.1046 55.9322 82.2699 56.0842 82.4833 56.1908C82.6966 56.2975 82.9419 56.3508 83.2193 56.3508C83.4593 56.3508 83.6753 56.3135 83.8673 56.2388C84.0593 56.1642 84.2299 56.0468 84.3793 55.8868L84.9153 56.5028C84.7233 56.7268 84.4806 56.9002 84.1873 57.0228C83.8993 57.1402 83.5686 57.1988 83.1953 57.1988ZM88.5878 52.8228C88.9291 52.8228 89.2331 52.8895 89.4998 53.0228C89.7718 53.1562 89.9851 53.3615 90.1398 53.6388C90.2945 53.9108 90.3718 54.2628 90.3718 54.6948V57.1428H89.3718V54.8228C89.3718 54.4442 89.2811 54.1615 89.0998 53.9748C88.9238 53.7882 88.6758 53.6948 88.3558 53.6948C88.1211 53.6948 87.9131 53.7428 87.7318 53.8388C87.5505 53.9348 87.4091 54.0788 87.3078 54.2708C87.2118 54.4575 87.1638 54.6948 87.1638 54.9828V57.1428H86.1638V52.8708H87.1158V54.0228L86.9478 53.6708C87.0971 53.3988 87.3131 53.1908 87.5958 53.0468C87.8838 52.8975 88.2145 52.8228 88.5878 52.8228Z" fill="#231F20"/>
</g>
<defs>
<clipPath id="clip0_148_924">
<rect width="148" height="72" fill="white"/>
</clipPath>
</defs>
</svg>
